<svg xmlns="http://www.w3.org/2000/svg" width="32" height="32" viewBox="0 0 256 256">
<g>
<path d="M 65.92 234.75 L 54.69 245.00 L 19.95 245.00 L 20.22 173.25 L 20.50 101.50 L 23.11 96.00 C25.21,91.56 31.02,85.22 53.30,63.05 C68.47,47.95 82.82,34.45 85.19,33.05 C89.39,30.56 90.04,30.49 111.00,30.18 L 132.50 29.86 L 141.94 39.39 C151.25,48.79 151.36,48.95 149.54,50.96 C147.77,52.91 146.59,53.00 121.35,53.00 L 95.00 53.00 L 94.99 69.75 C94.99,87.51 94.33,91.73 90.74,97.06 C86.34,103.59 84.28,104.12 62.79,104.32 L 43.50 104.50 L 43.24 163.25 L 42.98 222.00 L 66.07 222.00 L 75.51 207.75 C80.71,199.91 89.01,187.43 93.96,180.00 C98.92,172.57 102.98,166.22 102.99,165.88 C102.99,165.54 101.09,164.96 98.75,164.60 C90.40,163.31 68.91,157.78 69.20,157.00 C69.53,156.12 100.70,122.11 120.50,101.01 C135.22,85.33 153.59,65.58 161.38,57.06 L 169.09 48.62 L 157.35 36.85 C150.89,30.37 145.80,24.88 146.05,24.65 C146.30,24.41 157.98,22.53 172.00,20.47 C186.02,18.40 199.98,16.32 203.00,15.85 C206.02,15.38 211.99,14.53 216.27,13.96 C220.54,13.40 226.16,12.54 228.76,12.05 C231.37,11.56 233.61,11.27 233.74,11.41 C233.87,11.54 232.90,17.92 231.58,25.57 C230.26,33.23 228.25,45.35 227.11,52.50 C221.66,86.68 219.84,97.49 219.48,97.85 C219.27,98.06 213.88,92.97 207.51,86.53 C201.13,80.09 195.35,75.03 194.67,75.30 C193.04,75.92 126.00,140.11 126.00,141.04 C126.00,141.43 127.46,142.03 129.25,142.37 C138.88,144.19 160.00,149.44 160.00,150.00 C160.00,150.36 146.85,162.32 130.77,176.58 C114.69,190.84 98.38,205.48 94.52,209.13 C90.66,212.78 85.17,217.73 82.32,220.13 C79.47,222.53 72.09,229.11 65.92,234.75 ZM 182.00 241.91 L 176.50 244.50 L 73.50 244.98 L 79.50 239.75 C82.80,236.87 88.46,231.70 92.08,228.26 L 98.66 222.00 L 135.18 222.00 C171.43,222.00 171.73,221.98 175.10,219.74 C176.97,218.50 179.51,215.48 180.75,213.03 C183.00,208.58 183.00,208.52 183.00,156.37 L 183.00 104.16 L 189.00 97.83 L 195.00 91.50 L 200.46 97.50 L 205.92 103.50 L 205.96 154.50 C205.97,182.55 205.56,208.09 205.04,211.26 C202.83,224.79 194.31,236.12 182.00,241.91 Z" fill="#8c34ed"/>
<path d="M 0.00 128.00 L 0.00 0.00 L 128.00 0.00 L 256.00 0.00 L 256.00 128.00 L 256.00 256.00 L 128.00 256.00 L 0.00 256.00 L 0.00 128.00 ZM 65.92 234.75 C72.09,229.11 79.47,222.53 82.32,220.13 C85.17,217.73 90.66,212.78 94.52,209.13 C98.38,205.48 114.69,190.84 130.77,176.58 C146.85,162.32 160.00,150.36 160.00,150.00 C160.00,149.44 138.88,144.19 129.25,142.37 C127.46,142.03 126.00,141.43 126.00,141.04 C126.00,140.11 193.04,75.92 194.67,75.30 C195.35,75.03 201.13,80.09 207.51,86.53 C213.88,92.97 219.27,98.06 219.48,97.85 C219.84,97.49 221.66,86.68 227.11,52.50 C228.25,45.35 230.26,33.23 231.58,25.57 C232.90,17.92 233.87,11.54 233.74,11.41 C233.61,11.27 231.37,11.56 228.76,12.05 C226.16,12.54 220.54,13.40 216.27,13.96 C211.99,14.53 206.02,15.38 203.00,15.85 C199.98,16.32 186.02,18.40 172.00,20.47 C157.98,22.53 146.30,24.41 146.05,24.65 C145.80,24.88 150.89,30.37 157.35,36.85 L 169.09 48.62 L 161.38 57.06 C153.59,65.58 135.22,85.33 120.50,101.01 C100.70,122.11 69.53,156.12 69.20,157.00 C68.91,157.78 90.40,163.31 98.75,164.60 C101.09,164.96 102.99,165.54 102.99,165.88 C102.98,166.22 98.92,172.57 93.96,180.00 C89.01,187.43 80.71,199.91 75.51,207.75 L 66.07 222.00 L 54.53 222.00 L 42.98 222.00 L 43.24 163.25 L 43.50 104.50 L 62.79 104.32 C84.28,104.12 86.34,103.59 90.74,97.06 C94.33,91.73 94.99,87.51 94.99,69.75 L 95.00 53.00 L 121.35 53.00 C146.59,53.00 147.77,52.91 149.54,50.96 C151.36,48.95 151.25,48.79 141.94,39.39 L 132.50 29.86 L 111.00 30.18 C90.04,30.49 89.39,30.56 85.19,33.05 C82.82,34.45 68.47,47.95 53.30,63.05 C31.02,85.22 25.21,91.56 23.11,96.00 L 20.50 101.50 L 20.22 173.25 L 19.95 245.00 L 37.32 245.00 L 54.69 245.00 L 65.92 234.75 ZM 182.00 241.91 C194.31,236.12 202.83,224.79 205.04,211.26 C205.56,208.09 205.97,182.55 205.96,154.50 L 205.92 103.50 L 200.46 97.50 L 195.00 91.50 L 189.00 97.83 L 183.00 104.16 L 183.00 156.37 C183.00,208.52 183.00,208.58 180.75,213.03 C179.51,215.48 176.97,218.50 175.10,219.74 C171.73,221.98 171.43,222.00 135.18,222.00 L 98.66 222.00 L 92.08 228.26 C88.46,231.70 82.80,236.87 79.50,239.75 L 73.50 244.98 L 125.00 244.74 L 176.50 244.50 L 182.00 241.91 Z" fill="none"/>
</g>
</svg>